{"title":"Kajarya (2015) 1080p Webrip x264 DTS 5.1 MSubs -DDR","uid":15795186,"size":8311674210,"categoryP":"video","categoryS":"hd___movies","magnet":"?xt=urn:btih:92124d38f87ef3233a20b492659594209aa37284&amp;dn=Kajarya+%282015%29+1080p+Webrip+x264+DTS+5.1+MSubs+-DDR&amp;tr=udp%3A%2F%2Ftracker.leechers-paradise.org%3A6969&amp;tr=udp%3A%2F%2Fzer0day.ch%3A1337&amp;tr=udp%3A%2F%2Fopen.demonii.com%3A1337&amp;tr=udp%3A%2F%2Ftracker.coppersurfer.tk%3A6969&amp;tr=udp%3A%2F%2Fexodus.desync.com%3A6969","seeders":0,"leechers":1,"uploader":"SaM","files":3,"time":1473448349,"description":"Kajarya\r\n\r\n1080p Web Rip x264\r\n\r\nHindi DTS 5.1 Audio\r\n\r\n\r\n\r\nEnglish &amp; French Subtitles\r\n\r\n\r\n \nhttp://extraimago.com/image/wmpF \nhttp://extraimago.com/image/wmpD \nhttp://extraimago.com/image/wmp5 \nhttp://extraimago.com/image/wmYl \nhttp://extraimago.com/image/wmYi \nhttp://extraimago.com/image/wmYm \nhttp://extraimago.com/image/wmYR \nhttp://extraimago.com/image/wmYQ \nhttp://extraimago.com/image/wmYL \nhttp://extraimago.com/image/wmYy \nhttp://extraimago.com/image/wmYq \nhttp://extraimago.com/image/wmYS \nhttp://extraimago.com/image/wmYO \nhttp://extraimago.com/image/wmYE \nhttp://extraimago.com/image/wmY1 \nhttp://extraimago.com/image/wmYc\r\n\r\nSpecs:\r\nSource: Netflix Rip @ DDR\r\n\r\nFormat : Matroska\r\nFile size : 7.67 GiB\r\nDuration : 1 h 40 min\r\nOverall bit rate : 11.0 Mb/s\r\nEncoded date : UTC 2016-09-08 01:53:33\r\nWriting application : mkvmerge v9.2.0 ('Photograph') 64bit\r\nWriting library : libebml v1.3.3 + libmatroska v1.4.4\r\n\r\nVideo\r\nID : 1\r\nFormat : AVC\r\nFormat/Info : Advanced Video Codec\r\nFormat profile :   \r\nFormat settings, CABAC : Yes\r\nFormat settings, ReFrames : 4 frames\r\nCodec ID : V_MPEG4/ISO/AVC\r\nDuration : 1 h 40 min\r\nBit rate : 9 459 kb/s\r\nWidth : 1 920 pixels\r\nHeight : 1 080 pixels\r\nDisplay aspect ratio : 16:9\r\nFrame rate mode : Constant\r\nFrame rate : 24.000 FPS\r\nColor space : YUV\r\nChroma subsampling : 4:2:0\r\nBit depth : 8 bits\r\nScan type : Progressive\r\nBits/(Pixel*Frame) : 0.190\r\nStream size : 6.61 GiB (86%)\r\nLanguage : English\r\nDefault : Yes\r\nForced : No\r\nColor range : Limited\r\nColor primaries : BT.709\r\nTransfer characteristics : BT.709\r\nMatrix coefficients : BT.709\r\n\r\nAudio\r\nID : 2\r\nFormat : DTS\r\nFormat/Info : Digital Theater Systems\r\nMode : 16\r\nFormat settings, Endianness : Big\r\nCodec ID : A_DTS\r\nDuration : 1 h 40 min\r\nBit rate mode : Constant\r\nBit rate : 1 509 kb/s\r\nChannel(s) : 6 channels\r\nChannel positions : Front: L C R, Side: L R, LFE\r\nSampling rate : 48.0 kHz\r\nFrame rate : 93.750 FPS (512 spf)\r\nBit depth : 24 bits\r\nCompression mode : Lossy\r\nDelay relative to video : 3 ms\r\nStream size : 1.05 GiB (14%)\r\nLanguage : Hindi\r\nDefault : Yes\r\nForced : No\r\n\r\nText #1\r\nID : 3\r\nFormat : UTF-8\r\nCodec ID : S_TEXT/UTF8\r\nCodec ID/Info : UTF-8 Plain Text\r\nDuration : 1 h 37 min\r\nBit rate : 49 b/s\r\nCount of elements : 1160\r\nStream size : 35.8 KiB (0%)\r\nLanguage : English\r\nDefault : Yes\r\nForced : No\r\n\r\nText #2\r\nID : 4\r\nFormat : UTF-8\r\nCodec ID : S_TEXT/UTF8\r\nCodec ID/Info : UTF-8 Plain Text\r\nDuration : 1 h 38 min\r\nBit rate : 51 b/s\r\nCount of elements : 1108\r\nStream size : 37.2 KiB (0%)\r\nLanguage : French\r\nDefault : No\r\nForced : No\r\n\r\n\r\nSAMPLE Included","torrent":{"xt":"urn:btih:92124d38f87ef3233a20b492659594209aa37284","amp;dn":"Kajarya+%282015%29+1080p+Webrip+x264+DTS+5.1+MSubs+-DDR","amp;tr":["udp%3A%2F%2Ftracker.leechers-paradise.org%3A6969","udp%3A%2F%2Fzer0day.ch%3A1337","udp%3A%2F%2Fopen.demonii.com%3A1337","udp%3A%2F%2Ftracker.coppersurfer.tk%3A6969","udp%3A%2F%2Fexodus.desync.com%3A6969"],"infoHash":"92124d38f87ef3233a20b492659594209aa37284","infoHashBuffer":{"type":"Buffer","data":[146,18,77,56,248,126,243,35,58,32,180,146,101,149,148,32,154,163,114,132]},"announce":[],"urlList":[]}}